<?xml version="1.0" standalone="no"?>
<!DOCTYPE svg PUBLIC "-//W3C//DTD SVG 20010904//EN"
 "http://www.w3.org/TR/2001/REC-SVG-20010904/DTD/svg10.dtd">
<svg version="1.0" xmlns="http://www.w3.org/2000/svg"
 width="800.000000pt" height="800.000000pt" viewBox="0 0 800.000000 800.000000"
 preserveAspectRatio="xMidYMid meet">
<metadata>
Created by potrace 1.16, written by Peter Selinger 2001-2019
</metadata>
<g transform="translate(0.000000,800.000000) scale(0.100000,-0.100000)"
fill="#000000" stroke="none">
<path d="M3870 6798 c-37 -19 -47 -31 -59 -74 -15 -52 -15 -551 0 -608 18 -73
100 -104 183 -70 15 6 17 4 11 -7 -5 -8 -5 -11 1 -6 5 5 9 12 9 15 1 15 26 52
33 48 4 -2 7 144 7 324 0 180 -3 326 -7 324 -7 -4 -32 33 -33 48 0 3 -4 10 -9
15 -6 5 -6 2 -1 -6 6 -11 4 -13 -11 -7 -34 14 -98 16 -124 4z"/>
<path d="M2595 6471 c-3 -6 -3 -11 0 -11 4 0 -7 -16 -25 -37 -29 -33 -32 -41
-28 -89 3 -33 1 -51 -5 -47 -6 3 -7 1 -3 -6 4 -6 11 -9 16 -6 5 3 16 -8 25
-24 18 -36 19 -45 3 -35 -7 4 -8 3 -4 -5 4 -6 11 -9 16 -6 12 8 43 -53 34 -67
-4 -7 -3 -8 4 -4 6 3 16 -2 21 -13 14 -26 14 -34 -1 -25 -7 4 -8 3 -4 -5 4 -6
11 -9 16 -6 5 3 16 -8 25 -24 18 -36 19 -45 3 -35 -7 4 -8 3 -4 -5 4 -6 11 -9
16 -6 5 3 16 -8 25 -24 18 -36 19 -45 3 -35 -7 4 -8 3 -4 -5 4 -6 11 -9 16 -6
5 3 14 -3 19 -14 14 -26 14 -34 -1 -25 -7 4 -8 3 -4 -5 4 -6 11 -9 16 -6 5 3
16 -8 25 -24 18 -36 19 -45 3 -35 -7 4 -8 3 -4 -5 4 -6 11 -9 16 -6 5 3 14 -4
20 -15 6 -11 24 -27 41 -35 16 -9 27 -20 24 -25 -4 -6 8 -10 27 -9 31 1 32 1
8 9 l-25 8 25 1 c14 1 32 5 40 11 9 6 17 5 22 -3 6 -9 8 -8 8 2 0 8 9 24 20
36 31 33 40 75 24 121 -17 48 -17 47 -2 38 7 -4 8 -3 4 5 -4 6 -11 9 -16 6 -5
-3 -16 8 -25 24 -18 36 -19 45 -3 35 7 -4 8 -3 4 5 -4 6 -11 9 -16 6 -5 -3
-16 8 -25 24 -18 36 -19 45 -3 35 7 -4 8 -3 4 5 -4 6 -11 9 -16 6 -5 -3 -14 3
-19 14 -14 26 -14 34 1 25 7 -4 8 -3 4 5 -4 6 -11 9 -16 6 -5 -3 -16 8 -25 24
-18 36 -19 45 -3 35 7 -4 8 -3 4 5 -4 6 -11 9 -16 6 -5 -3 -16 8 -25 24 -18
36 -19 45 -3 35 7 -4 8 -3 4 5 -4 6 -11 9 -16 6 -12 -8 -43 53 -34 67 4 7 3 8
-4 4 -6 -3 -16 2 -21 13 -14 26 -14 34 1 25 7 -5 8 -3 4 5 -5 7 -10 10 -13 7
-3 -3 -19 6 -35 19 -20 17 -42 25 -68 25 -21 0 -45 3 -53 6 -8 3 -18 1 -22 -5z"/>
<path d="M5112 6433 c-21 -21 -40 -37 -44 -38 -3 0 -10 -4 -15 -9 -5 -5 -3 -6
5 -2 16 9 15 1 -3 -35 -9 -16 -20 -27 -25 -24 -5 3 -12 0 -16 -6 -4 -8 -3 -9
4 -5 15 9 15 1 1 -25 -5 -11 -15 -16 -21 -13 -7 4 -8 3 -4 -4 9 -14 -22 -75
-34 -67 -5 3 -12 0 -16 -6 -4 -8 -3 -9 4 -5 16 10 15 1 -3 -35 -9 -16 -20 -27
-25 -24 -5 3 -12 0 -16 -6 -4 -8 -3 -9 4 -5 15 9 15 1 1 -25 -5 -11 -15 -16
-21 -13 -6 4 -9 3 -5 -2 8 -13 -21 -76 -32 -70 -5 4 -13 1 -17 -5 -4 -8 -3 -9
4 -5 16 10 15 1 -3 -35 -9 -16 -19 -28 -23 -25 -4 2 -8 -24 -8 -59 0 -35 3
-62 7 -59 3 2 15 -6 25 -17 25 -28 67 -49 101 -50 26 -2 25 -2 -7 -9 l-35 -7
38 -2 c29 -1 37 3 37 17 0 13 2 14 9 4 6 -10 10 -9 14 7 3 12 10 21 17 21 6 0
8 -4 5 -10 -10 -16 1 -11 16 7 10 11 10 14 2 9 -18 -10 -16 -3 8 38 12 20 25
34 29 31 5 -3 12 0 16 6 4 8 3 9 -4 5 -15 -9 -15 -1 -1 25 5 11 15 16 21 13 7
-4 8 -3 4 4 -9 14 22 75 34 67 5 -3 12 0 16 6 4 8 3 9 -4 5 -16 -10 -15 -1 3
35 9 16 20 27 25 24 5 -3 12 0 16 6 4 8 3 9 -4 5 -16 -10 -15 -1 3 35 9 16 20
27 25 24 5 -3 12 0 16 6 4 8 3 9 -4 5 -15 -9 -15 -1 -1 25 5 11 14 17 19 14 5
-3 12 0 16 6 4 8 3 9 -4 5 -16 -10 -15 -1 3 35 9 16 20 27 25 24 5 -3 12 0 16
6 4 8 3 9 -4 5 -16 -10 -15 -1 4 36 11 21 15 46 11 74 -3 29 -1 41 6 37 6 -3
7 -1 3 6 -4 6 -11 9 -16 6 -4 -3 -14 2 -21 11 -21 25 -65 44 -105 44 -28 0
-44 -8 -72 -37z"/>
<path d="M3690 5685 c-172 -29 -313 -76 -471 -155 -44 -22 -85 -38 -91 -34 -6
4 -8 3 -5 -3 4 -6 -18 -27 -48 -47 -58 -39 -70 -43 -59 -23 4 7 3 9 -2 4 -5
-5 -9 -12 -9 -15 0 -13 -16 -32 -26 -32 -6 0 -7 5 -3 12 5 7 3 8 -5 4 -7 -5
-10 -11 -7 -14 7 -7 -24 -42 -37 -42 -5 0 -3 8 4 18 11 14 9 13 -9 -2 -12 -11
-20 -22 -17 -25 7 -7 -147 -161 -155 -156 -4 3 -16 -5 -26 -18 -16 -18 -16
-19 -1 -8 9 7 17 9 17 4 0 -9 -43 -49 -48 -44 -2 1 -7 -1 -10 -5 -4 -4 -1 -4
6 0 6 4 12 4 12 1 0 -9 -33 -41 -38 -37 -2 2 -7 0 -10 -4 -4 -4 -1 -4 7 1 9 5
12 3 9 -6 -3 -8 -10 -14 -16 -14 -5 0 -14 -4 -19 -9 -5 -5 -3 -6 5 -2 16 10
15 0 -4 -29 -9 -14 -20 -23 -24 -20 -5 3 -12 0 -16 -6 -4 -8 -3 -9 4 -5 15 9
15 1 1 -25 -5 -11 -13 -17 -18 -15 -4 3 -13 -5 -21 -17 -12 -21 -12 -21 5 -7
12 10 6 -8 -17 -55 -52 -104 -103 -247 -129 -364 -18 -77 -25 -98 -30 -80 -7
23 -7 23 -8 2 -1 -12 3 -24 7 -27 5 -3 4 -36 -1 -73 -14 -102 -2 -361 22 -475
25 -113 76 -265 125 -367 l34 -72 -49 -102 c-27 -56 -49 -107 -49 -113 0 -7
-7 -14 -15 -18 -8 -3 -15 -11 -15 -18 0 -9 3 -9 11 2 8 12 9 10 5 -10 -37
-150 -40 -173 -40 -320 0 -148 12 -230 50 -354 5 -13 2 -17 -7 -12 -8 4 -7 1
2 -6 23 -19 62 -114 53 -129 -5 -8 -3 -9 6 -4 10 6 12 4 7 -9 -5 -11 -3 -15 5
-10 8 5 9 2 5 -10 -4 -10 -3 -15 3 -11 5 3 14 -3 19 -14 14 -26 14 -34 -1 -25
-7 4 -8 3 -4 -5 4 -6 11 -9 15 -6 5 2 20 -13 35 -35 28 -43 32 -55 14 -44 -7
5 -8 3 -4 -5 5 -7 11 -10 14 -7 7 7 42 -24 42 -37 0 -5 -8 -3 -17 4 -15 12
-15 10 1 -8 10 -12 22 -21 25 -20 11 3 101 -85 96 -93 -3 -4 5 -16 17 -26 12
-11 18 -13 13 -5 -5 9 -3 12 6 9 8 -3 19 -14 25 -26 6 -13 15 -26 19 -30 5 -4
5 -1 0 7 -5 9 -3 12 6 9 8 -3 14 -10 14 -15 0 -6 4 -15 9 -20 5 -5 6 -3 2 4
-10 17 0 16 29 -3 14 -9 23 -20 20 -24 -3 -5 0 -12 6 -16 8 -4 9 -3 5 4 -11
18 -5 16 81 -28 43 -22 95 -46 116 -52 20 -6 37 -17 37 -25 0 -7 5 -13 11 -13
5 0 7 5 3 12 -5 7 -2 9 7 6 8 -3 50 -14 94 -23 60 -14 75 -20 60 -26 -19 -7
-19 -8 2 -8 12 -1 24 5 27 12 3 9 9 7 19 -5 9 -12 27 -18 48 -17 l34 1 -30 8
c-23 6 -14 8 38 9 43 1 80 7 100 18 18 9 35 17 39 18 3 0 10 4 15 9 5 5 3 6
-4 2 -16 -9 -16 -7 -2 32 14 40 -3 101 -36 132 -21 20 -44 26 -142 37 -217 25
-384 99 -530 237 -185 175 -275 381 -276 631 0 335 191 642 488 785 145 70
211 84 385 84 118 0 160 -4 227 -22 107 -29 129 -20 205 74 221 277 493 419
823 431 108 4 148 1 235 -17 252 -52 491 -201 640 -399 56 -74 139 -229 164
-308 21 -65 46 -85 138 -113 252 -77 438 -265 504 -510 23 -86 24 -253 1 -340
-75 -288 -319 -495 -625 -531 -53 -7 -109 -18 -123 -25 -29 -15 -59 -69 -59
-108 0 -31 20 -78 37 -89 8 -5 11 -12 8 -17 -3 -5 0 -12 6 -16 8 -4 9 -3 5 4
-4 7 -2 12 3 12 6 0 11 -7 11 -15 0 -8 8 -15 18 -15 14 0 15 2 2 10 -10 7 6
10 55 10 39 0 109 8 158 18 48 10 87 14 87 10 0 -4 5 -8 10 -8 6 0 10 6 10 14
0 7 8 16 18 19 9 2 26 8 36 13 14 5 17 4 12 -4 -4 -7 -2 -12 3 -12 6 0 11 6
11 13 0 19 47 40 54 24 2 -7 5 -5 5 4 1 9 8 20 17 23 22 9 26 8 18 -6 -4 -7
-3 -8 5 -4 6 4 9 11 6 16 -3 5 3 14 14 19 26 14 34 14 25 -1 -4 -8 -3 -10 2
-5 5 5 9 14 9 20 0 5 6 12 14 15 9 3 11 0 6 -8 -6 -9 -4 -11 4 -6 7 5 10 11 7
14 -7 7 13 32 26 32 5 0 6 -6 2 -12 -5 -9 -3 -9 9 1 9 7 15 16 12 20 -5 10
129 143 137 136 3 -3 11 2 19 12 9 11 10 14 2 9 -7 -4 -13 -3 -13 2 0 11 22
31 32 29 3 -1 10 2 15 7 5 5 2 6 -6 1 -9 -5 -12 -3 -9 6 3 8 10 14 16 14 5 0
14 4 19 9 5 5 3 6 -4 2 -16 -9 -16 -1 -2 25 5 11 14 17 19 14 5 -3 12 0 16 6
4 8 3 9 -4 5 -17 -10 -16 -7 22 75 61 132 80 224 80 389 1 165 -18 255 -80
388 -38 83 -39 86 -22 76 7 -4 8 -3 4 5 -4 6 -11 9 -16 6 -5 -3 -14 3 -19 14
-14 26 -14 34 1 25 7 -4 8 -3 4 5 -4 6 -11 9 -16 6 -4 -3 -20 11 -34 29 -30
40 -34 54 -8 35 15 -13 16 -12 3 3 -7 10 -16 16 -20 13 -10 -5 -143 129 -136
137 3 3 -2 11 -12 19 -11 9 -14 10 -9 2 4 -7 3 -13 -3 -13 -10 0 -26 19 -26
32 0 3 -4 10 -9 15 -5 5 -6 2 -1 -6 5 -9 3 -12 -6 -9 -8 3 -14 10 -14 16 0 5
-4 14 -9 19 -5 5 -6 2 -1 -6 5 -9 3 -12 -6 -9 -8 3 -14 10 -14 16 0 5 -4 14
-9 19 -5 5 -6 3 -2 -4 10 -19 2 -16 -67 18 -34 18 -84 39 -110 48 -46 16 -49
19 -82 95 -19 44 -31 84 -28 89 3 6 1 7 -5 3 -6 -3 -16 2 -21 13 -14 26 -14
34 1 25 7 -4 8 -3 4 5 -4 6 -11 9 -15 6 -5 -2 -25 20 -45 50 -38 58 -43 71
-24 59 7 -5 8 -3 4 5 -5 7 -11 10 -14 7 -7 -7 -42 24 -42 37 0 5 8 3 18 -4 14
-11 14 -10 -2 8 -10 13 -22 21 -26 18 -8 -5 -152 139 -145 146 3 3 -5 14 -17
25 -18 15 -20 16 -9 2 7 -10 9 -18 4 -18 -12 0 -42 32 -40 42 1 3 -2 10 -7 15
-5 5 -6 3 -2 -4 10 -19 -2 -16 -35 8 -16 11 -27 24 -24 29 3 5 0 12 -6 16 -8
4 -9 3 -5 -4 9 -16 -6 -15 -27 1 -11 8 -20 40 -27 102 -21 172 -76 357 -151
507 -42 84 -45 93 -27 82 7 -4 8 -3 4 5 -4 6 -11 9 -16 6 -5 -3 -14 3 -19 14
-14 26 -14 34 1 25 7 -4 8 -3 4 5 -4 6 -11 9 -15 6 -5 -2 -20 13 -35 35 -29
44 -32 55 -13 44 7 -4 9 -3 4 2 -5 5 -12 9 -15 9 -13 0 -32 16 -32 27 0 6 7 5
18 -3 15 -13 16 -12 3 4 -8 9 -16 15 -19 12 -7 -6 -32 15 -32 27 0 5 6 6 13 2
8 -5 7 -2 -2 9 -8 10 -16 15 -19 12 -7 -7 -62 45 -62 58 0 6 10 2 23 -9 12
-10 -9 14 -48 54 -38 40 -71 72 -74 72 -2 0 4 -9 14 -20 10 -11 14 -20 8 -20
-13 0 -65 55 -58 62 3 3 -2 11 -12 19 -11 9 -14 10 -9 2 4 -7 3 -13 -2 -13
-12 0 -33 25 -27 32 3 3 -3 11 -12 19 -16 13 -17 12 -4 -3 7 -10 9 -18 3 -18
-11 0 -29 20 -32 35 -1 6 -4 12 -7 15 -4 3 -3 -1 1 -7 11 -20 -1 -16 -59 23
-30 20 -52 41 -48 47 3 6 1 7 -5 3 -6 -4 -53 14 -104 40 -120 60 -297 118
-424 138 -122 19 -385 20 -494 1z m510 -254 c252 -58 466 -176 645 -356 149
-149 257 -320 320 -508 22 -66 57 -209 52 -213 -1 -1 -34 6 -74 16 -357 92
-741 22 -1063 -193 -41 -27 -125 -100 -186 -161 l-111 -111 -74 13 c-104 18
-329 10 -436 -17 -173 -43 -339 -127 -470 -238 -71 -61 -65 -64 -106 57 -92
269 -93 585 -3 853 91 272 267 502 506 662 145 96 349 179 505 204 39 6 81 13
95 15 61 11 319 -4 400 -23z"/>
<path d="M1675 5542 c3 -3 -9 -20 -25 -39 -43 -48 -49 -88 -25 -147 7 -15 5
-17 -6 -11 -8 5 -11 5 -6 -1 5 -5 14 -9 20 -9 7 0 12 -5 12 -12 0 -6 4 -15 9
-20 5 -5 6 -3 2 5 -9 15 -1 15 25 1 11 -5 17 -14 14 -19 -3 -5 0 -12 6 -16 8
-4 9 -3 5 4 -10 16 -1 15 35 -3 16 -9 27 -20 24 -25 -3 -5 0 -12 6 -16 8 -4 9
-3 5 4 -9 15 -1 15 25 1 11 -5 17 -14 14 -19 -3 -5 0 -12 6 -16 8 -4 9 -3 5 4
-10 16 -1 15 35 -3 16 -9 27 -20 24 -25 -3 -5 0 -12 6 -16 8 -4 9 -3 5 4 -10
16 -1 15 35 -3 16 -9 27 -20 24 -25 -3 -5 0 -12 6 -16 8 -4 9 -3 5 4 -9 15 -1
15 25 1 11 -5 16 -15 13 -21 -4 -7 -3 -8 4 -4 14 9 75 -22 67 -34 -3 -5 0 -12
6 -16 8 -4 9 -3 5 4 -10 16 -3 15 39 -5 19 -9 35 -23 35 -30 0 -7 5 -13 11
-13 5 0 7 5 4 10 -4 6 6 10 24 10 16 0 37 3 47 7 13 5 15 3 9 -7 -5 -9 -4 -11
4 -6 6 4 9 11 6 16 -3 4 2 14 11 21 25 20 44 65 44 102 0 40 -28 80 -71 103
-16 8 -27 19 -24 24 3 5 0 12 -6 16 -8 4 -9 3 -5 -4 9 -15 1 -15 -25 -1 -11 5
-16 15 -13 21 4 7 3 8 -4 4 -14 -9 -75 22 -67 34 3 5 0 12 -6 16 -8 4 -9 3 -5
-4 10 -16 1 -15 -35 3 -16 9 -27 20 -24 25 3 5 0 12 -6 16 -8 4 -9 3 -5 -4 9
-15 1 -15 -25 -1 -11 5 -16 15 -13 21 4 7 3 8 -4 4 -14 -9 -75 22 -67 34 3 5
0 12 -6 16 -8 4 -9 3 -5 -4 10 -16 1 -15 -35 3 -16 9 -27 20 -24 25 3 5 0 12
-6 16 -8 4 -9 3 -5 -4 10 -16 1 -15 -37 5 -27 14 -135 27 -122 15z"/>
<path d="M6071 5530 c-50 -23 -55 -24 -45 -8 4 7 3 8 -5 4 -6 -4 -9 -11 -6
-16 3 -5 -8 -16 -24 -25 -36 -18 -45 -19 -35 -3 4 7 3 8 -5 4 -6 -4 -9 -11 -6
-16 8 -12 -53 -43 -67 -34 -7 4 -8 3 -4 -4 3 -6 -2 -16 -13 -21 -26 -14 -34
-14 -25 1 4 7 3 8 -5 4 -6 -4 -9 -11 -6 -16 3 -5 -8 -16 -24 -25 -36 -18 -45
-19 -35 -3 4 7 3 8 -5 4 -6 -4 -9 -11 -6 -16 8 -12 -53 -43 -67 -34 -7 4 -8 3
-4 -4 3 -6 -2 -16 -13 -21 -26 -14 -34 -14 -25 2 4 7 3 9 -2 4 -5 -5 -9 -14
-9 -20 0 -7 -10 -12 -23 -11 -12 0 -20 -2 -17 -4 2 -3 -9 -20 -25 -39 -24 -27
-30 -43 -30 -80 0 -40 5 -50 40 -85 22 -22 40 -44 40 -49 0 -5 5 -9 11 -9 5 0
7 5 4 10 -4 6 7 10 25 10 17 0 48 9 70 20 45 23 54 25 44 8 -4 -7 -3 -8 5 -4
6 4 9 11 6 16 -3 5 3 14 14 19 26 14 34 14 25 -1 -4 -7 -3 -8 5 -4 6 4 9 11 6
16 -3 5 8 16 24 25 36 18 45 19 35 3 -4 -7 -3 -8 5 -4 6 4 9 11 6 16 -3 5 8
16 24 25 36 18 45 19 35 3 -4 -7 -3 -8 5 -4 6 4 9 11 6 16 -8 12 53 43 67 34
7 -4 8 -3 4 4 -3 6 2 16 13 21 26 14 34 14 25 -1 -4 -7 -3 -8 5 -4 6 4 9 11 6
16 -3 5 8 16 24 25 36 18 45 19 35 3 -4 -7 -3 -8 5 -4 6 4 9 11 6 16 -3 4 6
15 20 24 29 19 39 20 29 4 -5 -9 -2 -9 9 1 18 15 23 26 7 16 -15 -9 -12 2 6
31 16 24 15 64 -2 108 -6 15 -4 17 6 11 9 -5 11 -4 6 4 -4 6 -11 9 -16 6 -4
-3 -14 3 -21 12 -13 15 -69 43 -86 43 -4 0 -28 -9 -52 -20z"/>
<path d="M1977 4283 c6 -4 -124 -7 -290 -5 -260 3 -307 1 -344 -13 -24 -9 -43
-21 -43 -26 0 -6 -4 -8 -9 -4 -5 3 -13 0 -17 -6 -5 -8 -3 -9 6 -4 9 6 10 2 4
-16 -15 -40 -9 -95 11 -124 11 -15 25 -36 31 -47 9 -15 13 -16 17 -6 4 9 6 7
6 -4 1 -17 22 -18 314 -16 l312 3 -310 5 -310 5 303 3 c185 1 311 6 323 12 14
8 19 7 20 -2 0 -7 4 -3 10 10 5 13 13 21 18 17 5 -3 13 0 17 6 5 8 3 9 -6 4
-10 -6 -11 -4 -5 11 5 10 10 40 13 65 3 41 0 51 -28 82 -17 20 -31 39 -30 44
1 4 -4 9 -12 11 -9 3 -10 1 -1 -5z"/>
<path d="M5876 4265 c-34 -18 -39 -19 -30 -2 4 6 -2 3 -14 -7 -24 -21 -29 -32
-10 -20 8 5 9 2 2 -12 -4 -10 -9 -44 -9 -76 0 -31 -3 -54 -7 -52 -4 3 -5 -2
-2 -10 3 -9 9 -14 13 -11 8 4 42 -31 35 -37 -2 -3 4 -5 14 -5 9 1 154 -1 322
-3 l305 -5 -305 -5 -305 -5 308 -3 c266 -2 308 0 313 13 4 8 10 15 16 15 5 0
6 -5 2 -12 -5 -7 -3 -8 5 -4 7 5 10 10 7 13 -3 3 6 19 19 35 14 16 26 39 26
51 5 62 3 95 -3 91 -7 -4 -32 33 -33 48 0 3 -4 10 -9 15 -6 5 -6 2 -1 -6 7
-11 4 -12 -11 -5 -10 5 -154 10 -319 12 -253 2 -305 0 -329 -13z"/>
<path d="M2139 3285 c-1 -3 -2 -10 -3 -16 -1 -10 -43 -38 -59 -39 -5 0 -5 5
-1 12 4 7 3 8 -5 4 -6 -4 -9 -11 -6 -16 3 -5 -8 -16 -24 -25 -36 -18 -45 -19
-35 -3 4 7 3 8 -5 4 -6 -4 -9 -11 -6 -16 3 -5 -8 -16 -24 -25 -36 -18 -45 -19
-35 -3 4 7 3 8 -5 4 -6 -4 -9 -11 -6 -16 8 -12 -53 -43 -67 -34 -7 4 -8 3 -4
-4 3 -6 -2 -16 -13 -21 -26 -14 -34 -14 -25 1 4 7 3 8 -5 4 -6 -4 -9 -11 -6
-16 3 -5 -8 -16 -24 -25 -36 -18 -45 -19 -35 -3 4 7 3 8 -5 4 -6 -4 -9 -11 -6
-16 3 -5 -8 -16 -24 -25 -36 -18 -45 -19 -35 -3 5 7 3 8 -5 4 -7 -5 -10 -10
-7 -13 3 -3 -8 -21 -24 -40 -34 -38 -39 -81 -15 -127 18 -35 19 -39 3 -30 -8
4 -10 3 -5 -2 5 -5 14 -9 20 -9 7 0 12 -5 12 -12 0 -6 4 -15 9 -20 6 -5 6 -2
1 6 -6 11 -4 13 9 8 10 -4 20 -7 22 -7 2 0 4 -7 4 -15 0 -22 46 -19 70 5 21
21 46 28 34 8 -4 -7 -3 -8 5 -4 6 4 9 11 6 16 -3 5 8 16 24 25 36 18 45 19 35
3 -4 -7 -3 -8 5 -4 6 4 9 11 6 16 -3 5 8 16 24 25 36 18 45 19 35 3 -4 -7 -3
-8 5 -4 6 4 9 11 6 16 -3 5 3 14 14 19 14 8 21 8 24 -2 3 -7 6 -4 6 7 1 12 6
16 17 12 8 -3 12 -2 9 4 -3 5 3 14 14 19 26 14 34 14 25 -1 -4 -7 -3 -8 5 -4
6 4 9 11 6 16 -3 5 8 16 24 25 36 18 45 19 35 3 -4 -7 -3 -8 5 -4 6 4 9 11 6
16 -3 5 8 16 24 25 36 18 45 19 35 3 -4 -7 -3 -8 5 -4 6 4 9 11 6 16 -3 5 3
14 14 19 26 14 34 14 25 -1 -4 -8 -3 -10 2 -5 5 5 9 14 9 19 0 6 6 13 14 16 9
3 11 0 6 -9 -5 -8 1 -5 13 5 24 21 29 32 10 20 -8 -5 -9 -2 -3 12 12 25 12
103 0 128 -6 15 -5 17 5 11 9 -5 11 -4 6 4 -4 6 -11 9 -16 6 -8 -5 -29 15 -27
27 1 3 -2 10 -7 15 -6 5 -6 2 -1 -6 7 -11 4 -13 -11 -5 -10 5 -41 8 -67 8 -30
-1 -43 2 -35 7 10 7 10 9 1 9 -7 0 -14 -2 -14 -5z"/>
</g>
</svg>
